<svg xmlns="http://www.w3.org/2000/svg" width="1110" height="215" viewBox="0 0 1110 215">
<style>text { font-family: Arial, sans-serif; fill: #1f2937; } .label { font-size: 13px; font-weight: bold; } .title { font-size: 17px; font-weight: bold; } .axis { font-size: 11px; fill: #4b5563; } .value { font-size: 10px; font-weight: bold; } .mlabel { font-size: 10px; fill: #6b7280; }</style>
<text x="20" y="28" class="title">Model Comparison — Bi-Encoder vs. Cross-Encoder (Hit@1 / Hit@10 / MRR)</text>
<line x1="300" y1="60" x2="1060" y2="60" stroke="#d1d5db" stroke-width="1"/>
<line x1="300" y1="165" x2="1060" y2="165" stroke="#d1d5db" stroke-width="1"/>
<line x1="300.0" y1="60" x2="300.0" y2="165" stroke="#e5e7eb" stroke-width="1"/>
<text x="290.0" y="56" class="axis">0%</text>
<line x1="490.0" y1="60" x2="490.0" y2="165" stroke="#e5e7eb" stroke-width="1"/>
<text x="480.0" y="56" class="axis">25%</text>
<line x1="680.0" y1="60" x2="680.0" y2="165" stroke="#e5e7eb" stroke-width="1"/>
<text x="670.0" y="56" class="axis">50%</text>
<line x1="870.0" y1="60" x2="870.0" y2="165" stroke="#e5e7eb" stroke-width="1"/>
<text x="860.0" y="56" class="axis">75%</text>
<line x1="1060.0" y1="60" x2="1060.0" y2="165" stroke="#e5e7eb" stroke-width="1"/>
<text x="1050.0" y="56" class="axis">100%</text>
<text x="20" y="62" class="label">epoch-03</text>
<text x="296" y="74" class="mlabel" text-anchor="end">Hit@1</text>
<rect x="300" y="66" width="482.15084" height="8" fill="#1d4ed8" rx="2"/>
<text x="786.15084" y="73" class="value">63.44%</text>
<text x="296" y="103" class="mlabel" text-anchor="end">Hit@10</text>
<rect x="300" y="95" width="694.62328" height="8" fill="#6d28d9" rx="2"/>
<text x="998.62328" y="102" class="value">91.40%</text>
<text x="296" y="132" class="mlabel" text-anchor="end">MRR</text>
<rect x="300" y="124" width="557.24264" height="8" fill="#b45309" rx="2"/>
<text x="861.24264" y="131" class="value">73.32%</text>
<rect x="20" y="176" width="12" height="9" fill="#1d4ed8" rx="2"/>
<text x="36" y="185" class="axis">Hit@1 Bi-Enc</text>
<rect x="160" y="176" width="12" height="9" fill="#93c5fd" rx="2"/>
<text x="176" y="185" class="axis">Hit@1 Cross-Enc</text>
<rect x="300" y="176" width="12" height="9" fill="#6d28d9" rx="2"/>
<text x="316" y="185" class="axis">Hit@10 Bi-Enc</text>
<rect x="440" y="176" width="12" height="9" fill="#c4b5fd" rx="2"/>
<text x="456" y="185" class="axis">Hit@10 Cross-Enc</text>
<rect x="580" y="176" width="12" height="9" fill="#b45309" rx="2"/>
<text x="596" y="185" class="axis">MRR Bi-Enc</text>
<rect x="720" y="176" width="12" height="9" fill="#fcd34d" rx="2"/>
<text x="736" y="185" class="axis">MRR Cross-Enc</text>
</svg>